<?xml version="1.0" encoding="UTF-8"?>
<svg id="Lag_1" xmlns="http://www.w3.org/2000/svg" version="1.1" viewBox="0 0 595.28 595.28">
  <!-- Generator: Adobe Illustrator 29.1.0, SVG Export Plug-In . SVG Version: 2.1.0 Build 142)  -->
  <defs>
    <style>
      .st0 {
        fill: #c96;
      }

      .st0, .st1, .st2 {
        stroke: #1d1d1b;
        stroke-miterlimit: 10;
      }

      .st1 {
        fill: #1d1d1b;
      }

      .st2 {
        fill: #fff;
      }
    </style>
  </defs>
  <path class="st0" d="M473.38,252.33c3.83,13.54,20.32,77.35-12.71,144.85-8.03,16.41-53.77,104.11-146.54,110.12-100.73,6.52-158.61-89.63-162.63-96.56-30.6-52.78-25.7-105.69-23.72-127.06,2.16-23.33,7.47-73.19,45.74-118.59,9.7-11.5,52.25-61.98,116.89-66.07,86.35-5.46,160.85,75.1,182.96,153.32Z"/>
  <ellipse class="st1" cx="173.74" cy="488.66" rx="99.32" ry="29.67"/>
  <path class="st1" d="M530.57,488.66c2.21,38.38-200.89,38.37-198.65,0-2.21-38.39,200.89-38.38,198.65,0Z"/>
  <ellipse class="st2" cx="228.16" cy="249.79" rx="31.76" ry="53.39"/>
  <ellipse class="st1" cx="228.16" cy="245.52" rx="9.32" ry="6.78"/>
  <ellipse class="st2" cx="358.61" cy="249.79" rx="31.76" ry="53.39"/>
  <ellipse class="st1" cx="358.61" cy="245.52" rx="9.32" ry="6.78"/>
  <path class="st1" d="M272.64,298.86c-1.44,10.46,12.44,22.52,26.05,22.02,12.58-.46,25.43-11.67,23.93-22.02-1.38-9.51-14.39-14.93-23.93-15.25-10.85-.36-24.73,5.66-26.05,15.25Z"/>
  <path class="st1" d="M558.94,366.65c-8.68-17.76-17.68-31.31-24.56-40.66-11.41-15.49-17.26-23.25-24.56-23.72-9.11-.58-16.54,7.43-37.85,8.71,0,0-.02,0-.03,0,0,0-15.31,25.2-8.24,38.39,3.8,7.08,16.3,9.57,16.3,9.57h0s76.24,44.44,86.56,32.27c2.12-2.5,2.39-8.5-7.62-24.56Z"/>
  <path class="st1" d="M154.2,385.19c-14.78-34.9-30.24-45.16-42.35-47.44-10.76-2.02-33.98-.56-33.98-.56-19.75-14.29-27.48-15.39-30.55-12.89-6.82,5.56,2.09,34.73,22.31,51.28,2.4,1.96,7.3,7.23,16.3,9.57,12.27,3.19,35.17,6.94,68.27.04Z"/>
  <path class="st1" d="M457.29,74.42c-3.69,37.66-70.6,57.95-75.5,50.99-2.94-4.19,18.47-15.44,36.54-50.99,11.46-22.55,12.38-36.77,19.48-37.27,8.64-.61,21.23,19.44,19.48,37.27Z"/>
  <path class="st1" d="M173.52,165.08c-3.08,1.08-5.38-3.92-29.65-31.37-29.84-33.76-36.23-37.37-37.27-48.29-2.16-22.65,21.17-50.74,37.27-48.29,30.87,4.7,43.82,123,29.65,127.95Z"/>
  <path class="st1" d="M161.67-41.63"/>
  <path class="st1" d="M300.58,322.61"/>
  <path class="st1" d="M237.81,363.71c14.3,8.61,25.06,22.73,40.4,29.32,14.8,6.36,32.19,4.7,46.95-1.75s27.19-17.29,38.12-29.12c1.96-2.12,2.31-6.07,4.22-8.22"/>
  <rect class="st2" x="267.55" y="360.72" width="13.55" height="18.64"/>
</svg>